# xmcd
#
# Track frame offsets:
#	150
#	21182
#	39867
#	59695
#	80990
#	109987
#	127152
#	153487
#	192537
#	211565
#	232790
#	253327
#	275645
#	304370
#	325892
#
# Disc length: 4606 seconds
#
# Revision: 1
# Processed by: cddbd v1.5.1PL0 Copyright (c) Steve Scherf et al.
# Submitted via: CDex 1.50Beta5
#
DISCID=e011fc0f
DTITLE=Various Artist - NEW MUSIC BEST COLLECTION 1
DYEAR=1900
DGENRE=Folk
TTITLE0=米米CLUB/君がいるだけで
TTITLE1=米米CLUB/浪漫飛行
TTITLE2=杏子/DISTANCIA〜この胸の約束
TTITLE3=チューブ/夏だね
TTITLE4=ユニコーン/雪が降る町
TTITLE5=ユニコーン/働く男
TTITLE6=X/紅
TTITLE7=X/Say Anything
TTITLE8=久保田利伸/流星のサドル
TTITLE9=久保田利伸/You were mine
TTITLE10=レベッカ/フレンズ
TTITLE11=レベッカ/LITTLE ROCK
TTITLE12=NOKKO/CRAZY CLOUDS
TTITLE13=爆風スランプ/Runner
TTITLE14=爆風スランプ/リゾラバ〜resort lovers〜
EXTD=
EXTT0=
EXTT1=
EXTT2=
EXTT3=
EXTT4=
EXTT5=
EXTT6=
EXTT7=
EXTT8=
EXTT9=
EXTT10=
EXTT11=
EXTT12=
EXTT13=
EXTT14=
PLAYORDER=
